<svg width="273" height="429" viewBox="0 0 273 429" fill="none" xmlns="http://www.w3.org/2000/svg">
<g clip-path="url(#clip0_59_2155)">
<path d="M0.745605 12.6455C0.745605 5.66159 6.40721 0 13.3911 0H272.536V429H13.3911C6.40721 429 0.745605 423.338 0.745605 416.354V12.6455Z" fill="#18181C"/>
<path d="M0.745605 395.015H272.536V429H13.3911C6.40721 429 0.745605 423.338 0.745605 416.354V395.015Z" fill="#1C1E24"/>
<path d="M20.3464 416.408V408.131H23.2967C23.9379 408.131 24.4701 408.242 24.8931 408.462C25.3188 408.683 25.6367 408.989 25.8469 409.38C26.0571 409.768 26.1621 410.217 26.1621 410.726C26.1621 411.232 26.0557 411.678 25.8429 412.064C25.6327 412.446 25.3148 412.744 24.8891 412.957C24.466 413.17 23.9339 413.276 23.2926 413.276H21.0577V412.201H23.1795C23.5836 412.201 23.9123 412.143 24.1656 412.027C24.4216 411.911 24.6088 411.743 24.7274 411.522C24.8459 411.301 24.9052 411.036 24.9052 410.726C24.9052 410.413 24.8446 410.142 24.7234 409.913C24.6048 409.684 24.4175 409.509 24.1616 409.388C23.9083 409.264 23.5756 409.202 23.1633 409.202H21.5952V416.408H20.3464ZM24.4324 412.674L26.4774 416.408H25.0548L23.0502 412.674H24.4324ZM30.1825 416.533C29.5708 416.533 29.0441 416.403 28.6022 416.141C28.163 415.877 27.8236 415.507 27.5838 415.03C27.3467 414.55 27.2281 413.989 27.2281 413.345C27.2281 412.709 27.3467 412.148 27.5838 411.663C27.8236 411.178 28.1577 410.8 28.5861 410.528C29.0172 410.256 29.521 410.12 30.0976 410.12C30.4479 410.12 30.7874 410.177 31.1161 410.293C31.4448 410.409 31.7398 410.591 32.0012 410.839C32.2625 411.087 32.4686 411.409 32.6195 411.805C32.7704 412.198 32.8458 412.676 32.8458 413.24V413.668H27.9111V412.763H31.6617C31.6617 412.445 31.597 412.163 31.4677 411.918C31.3383 411.67 31.1565 411.475 30.9221 411.332C30.6904 411.189 30.4182 411.118 30.1057 411.118C29.7662 411.118 29.4698 411.201 29.2165 411.368C28.966 411.533 28.772 411.748 28.6346 412.015C28.4998 412.279 28.4325 412.566 28.4325 412.876V413.583C28.4325 413.998 28.5052 414.351 28.6507 414.642C28.7989 414.933 29.005 415.155 29.2691 415.309C29.5331 415.46 29.8416 415.535 30.1946 415.535C30.4236 415.535 30.6324 415.503 30.821 415.438C31.0096 415.371 31.1726 415.271 31.3101 415.139C31.4475 415.007 31.5526 414.844 31.6253 414.65L32.7691 414.856C32.6774 415.193 32.5131 415.488 32.276 415.741C32.0416 415.992 31.7465 416.187 31.3909 416.327C31.0379 416.465 30.6351 416.533 30.1825 416.533ZM34.1866 418.736V410.2H35.3668V411.207H35.4678C35.5378 411.077 35.6389 410.928 35.7709 410.758C35.9029 410.588 36.0862 410.44 36.3206 410.314C36.555 410.184 36.8648 410.12 37.2501 410.12C37.7513 410.12 38.1985 410.246 38.5919 410.499C38.9853 410.753 39.2938 411.118 39.5174 411.595C39.7437 412.072 39.8569 412.645 39.8569 413.316C39.8569 413.987 39.7451 414.563 39.5215 415.042C39.2978 415.519 38.9907 415.887 38.6 416.145C38.2093 416.401 37.7634 416.529 37.2622 416.529C36.885 416.529 36.5765 416.466 36.3367 416.339C36.0996 416.213 35.9137 416.065 35.779 415.895C35.6443 415.725 35.5405 415.574 35.4678 415.442H35.395V418.736H34.1866ZM35.3708 413.304C35.3708 413.741 35.4341 414.123 35.5608 414.452C35.6874 414.781 35.8706 415.038 36.1104 415.224C36.3502 415.407 36.6439 415.499 36.9915 415.499C37.3525 415.499 37.6543 415.403 37.8968 415.212C38.1393 415.018 38.3225 414.755 38.4464 414.424C38.573 414.092 38.6364 413.719 38.6364 413.304C38.6364 412.895 38.5744 412.527 38.4505 412.201C38.3292 411.875 38.146 411.618 37.9008 411.429C37.6583 411.24 37.3552 411.146 36.9915 411.146C36.6412 411.146 36.3448 411.236 36.1023 411.417C35.8625 411.597 35.6807 411.849 35.5567 412.173C35.4328 412.496 35.3708 412.873 35.3708 413.304ZM42.4193 408.131V416.408H41.2108V408.131H42.4193ZM44.8088 418.736C44.6283 418.736 44.4639 418.721 44.3157 418.692C44.1676 418.665 44.0571 418.635 43.9843 418.603L44.2753 417.613C44.4963 417.672 44.693 417.697 44.8654 417.689C45.0378 417.681 45.1901 417.617 45.3221 417.495C45.4568 417.374 45.5754 417.176 45.6777 416.901L45.8273 416.489L43.5559 410.2H44.8492L46.4214 415.018H46.4861L48.0582 410.2H49.3556L46.7973 417.237C46.6787 417.56 46.5278 417.833 46.3446 418.057C46.1614 418.283 45.9431 418.453 45.6899 418.566C45.4366 418.68 45.1429 418.736 44.8088 418.736ZM53.6002 416.408V408.131H54.849V411.728H58.9754V408.131H60.2283V416.408H58.9754V412.799H54.849V416.408H53.6002ZM64.6255 416.533C64.0139 416.533 63.4871 416.403 63.0453 416.141C62.6061 415.877 62.2666 415.507 62.0268 415.03C61.7897 414.55 61.6711 413.989 61.6711 413.345C61.6711 412.709 61.7897 412.148 62.0268 411.663C62.2666 411.178 62.6007 410.8 63.0291 410.528C63.4602 410.256 63.9641 410.12 64.5406 410.12C64.8909 410.12 65.2304 410.177 65.5591 410.293C65.8878 410.409 66.1829 410.591 66.4442 410.839C66.7056 411.087 66.9117 411.409 67.0626 411.805C67.2135 412.198 67.2889 412.676 67.2889 413.24V413.668H62.3542V412.763H66.1047C66.1047 412.445 66.0401 412.163 65.9107 411.918C65.7814 411.67 65.5995 411.475 65.3651 411.332C65.1334 411.189 64.8613 411.118 64.5487 411.118C64.2092 411.118 63.9129 411.201 63.6596 411.368C63.409 411.533 63.215 411.748 63.0776 412.015C62.9429 412.279 62.8755 412.566 62.8755 412.876V413.583C62.8755 413.998 62.9483 414.351 63.0938 414.642C63.242 414.933 63.4481 415.155 63.7121 415.309C63.9762 415.46 64.2847 415.535 64.6376 415.535C64.8667 415.535 65.0755 415.503 65.2641 415.438C65.4527 415.371 65.6157 415.271 65.7531 415.139C65.8905 415.007 65.9956 414.844 66.0683 414.65L67.2121 414.856C67.1205 415.193 66.9561 415.488 66.719 415.741C66.4846 415.992 66.1896 416.187 65.8339 416.327C65.481 416.465 65.0782 416.533 64.6255 416.533ZM68.6297 416.408V410.2H69.7977V411.186H69.8623C69.9755 410.852 70.1749 410.59 70.4605 410.398C70.7488 410.204 71.0748 410.107 71.4385 410.107C71.514 410.107 71.6029 410.11 71.7053 410.115C71.8104 410.121 71.8925 410.128 71.9518 410.136V411.292C71.9033 411.278 71.8171 411.263 71.6932 411.247C71.5692 411.228 71.4453 411.219 71.3213 411.219C71.0357 411.219 70.7811 411.279 70.5575 411.401C70.3366 411.519 70.1614 411.685 70.0321 411.898C69.9028 412.108 69.8381 412.348 69.8381 412.617V416.408H68.6297ZM75.4508 416.533C74.8392 416.533 74.3124 416.403 73.8705 416.141C73.4314 415.877 73.0919 415.507 72.8521 415.03C72.615 414.55 72.4964 413.989 72.4964 413.345C72.4964 412.709 72.615 412.148 72.8521 411.663C73.0919 411.178 73.426 410.8 73.8544 410.528C74.2855 410.256 74.7893 410.12 75.3659 410.12C75.7162 410.12 76.0557 410.177 76.3844 410.293C76.7131 410.409 77.0081 410.591 77.2695 410.839C77.5308 411.087 77.737 411.409 77.8878 411.805C78.0387 412.198 78.1142 412.676 78.1142 413.24V413.668H73.1794V412.763H76.93C76.93 412.445 76.8653 412.163 76.736 411.918C76.6067 411.67 76.4248 411.475 76.1904 411.332C75.9587 411.189 75.6865 411.118 75.374 411.118C75.0345 411.118 74.7381 411.201 74.4849 411.368C74.2343 411.533 74.0403 411.748 73.9029 412.015C73.7682 412.279 73.7008 412.566 73.7008 412.876V413.583C73.7008 413.998 73.7736 414.351 73.919 414.642C74.0672 414.933 74.2734 415.155 74.5374 415.309C74.8015 415.46 75.11 415.535 75.4629 415.535C75.6919 415.535 75.9008 415.503 76.0894 415.438C76.278 415.371 76.441 415.271 76.5784 415.139C76.7158 415.007 76.8209 414.844 76.8936 414.65L78.0374 414.856C77.9458 415.193 77.7814 415.488 77.5443 415.741C77.3099 415.992 77.0149 416.187 76.6592 416.327C76.3063 416.465 75.9034 416.533 75.4508 416.533ZM80.2511 416.485C80.0302 416.485 79.8402 416.407 79.6813 416.251C79.5223 416.092 79.4428 415.9 79.4428 415.677C79.4428 415.456 79.5223 415.267 79.6813 415.111C79.8402 414.952 80.0302 414.872 80.2511 414.872C80.4721 414.872 80.662 414.952 80.821 415.111C80.98 415.267 81.0594 415.456 81.0594 415.677C81.0594 415.825 81.0217 415.961 80.9463 416.085C80.8735 416.206 80.7765 416.303 80.6553 416.376C80.534 416.449 80.3993 416.485 80.2511 416.485ZM83.4743 416.485C83.2533 416.485 83.0634 416.407 82.9044 416.251C82.7454 416.092 82.666 415.9 82.666 415.677C82.666 415.456 82.7454 415.267 82.9044 415.111C83.0634 414.952 83.2533 414.872 83.4743 414.872C83.6952 414.872 83.8852 414.952 84.0441 415.111C84.2031 415.267 84.2826 415.456 84.2826 415.677C84.2826 415.825 84.2449 415.961 84.1694 416.085C84.0967 416.206 83.9997 416.303 83.8784 416.376C83.7572 416.449 83.6225 416.485 83.4743 416.485ZM86.6974 416.485C86.4765 416.485 86.2865 416.407 86.1275 416.251C85.9686 416.092 85.8891 415.9 85.8891 415.677C85.8891 415.456 85.9686 415.267 86.1275 415.111C86.2865 414.952 86.4765 414.872 86.6974 414.872C86.9183 414.872 87.1083 414.952 87.2673 415.111C87.4262 415.267 87.5057 415.456 87.5057 415.677C87.5057 415.825 87.468 415.961 87.3925 416.085C87.3198 416.206 87.2228 416.303 87.1015 416.376C86.9803 416.449 86.8456 416.485 86.6974 416.485Z" fill="#5F5F5F"/>
<g clip-path="url(#clip1_59_2155)">
<path d="M216.925 402.523H204.28C202.534 402.523 201.118 403.939 201.118 405.685V418.33C201.118 420.076 202.534 421.492 204.28 421.492H216.925C218.671 421.492 220.086 420.076 220.086 418.33V405.685C220.086 403.939 218.671 402.523 216.925 402.523Z" fill="#23262F"/>
<path d="M210.602 417.276C207.692 417.276 205.333 414.917 205.333 412.007C205.333 409.097 207.692 406.738 210.602 406.738C213.513 406.738 215.871 409.097 215.871 412.007C215.871 414.917 213.513 417.276 210.602 417.276ZM208.495 412.534C208.495 413.093 208.717 413.629 209.112 414.025C209.507 414.42 210.043 414.642 210.602 414.642C211.161 414.642 211.698 414.42 212.093 414.025C212.488 413.629 212.71 413.093 212.71 412.534H208.495ZM208.495 411.48C208.704 411.48 208.906 411.397 209.054 411.249C209.202 411.101 209.285 410.9 209.285 410.69C209.285 410.48 209.202 410.279 209.054 410.131C208.906 409.983 208.704 409.9 208.495 409.9C208.285 409.9 208.084 409.983 207.936 410.131C207.788 410.279 207.705 410.48 207.705 410.69C207.705 410.9 207.788 411.101 207.936 411.249C208.084 411.397 208.285 411.48 208.495 411.48ZM212.71 411.48C212.92 411.48 213.121 411.397 213.269 411.249C213.417 411.101 213.5 410.9 213.5 410.69C213.5 410.48 213.417 410.279 213.269 410.131C213.121 409.983 212.92 409.9 212.71 409.9C212.5 409.9 212.299 409.983 212.151 410.131C212.003 410.279 211.92 410.48 211.92 410.69C211.92 410.9 212.003 411.101 212.151 411.249C212.299 411.397 212.5 411.48 212.71 411.48Z" fill="#5E6272"/>
</g>
<g clip-path="url(#clip2_59_2155)">
<path d="M253.202 402.523H240.556C238.81 402.523 237.395 403.939 237.395 405.685V418.33C237.395 420.076 238.81 421.492 240.556 421.492H253.202C254.948 421.492 256.363 420.076 256.363 418.33V405.685C256.363 403.939 254.948 402.523 253.202 402.523Z" fill="#246BFD"/>
<path d="M251.608 407.278C251.509 407.179 251.385 407.108 251.249 407.073C251.113 407.037 250.97 407.039 250.835 407.077L241.631 409.673C241.476 409.716 241.338 409.806 241.236 409.93C241.133 410.054 241.071 410.207 241.058 410.367C241.044 410.528 241.08 410.688 241.161 410.828C241.241 410.967 241.362 411.079 241.507 411.148L245.357 412.971L247.989 410.339C248.063 410.265 248.163 410.223 248.268 410.223C248.373 410.223 248.474 410.265 248.548 410.339C248.622 410.413 248.663 410.514 248.663 410.619C248.663 410.723 248.622 410.824 248.548 410.898L245.916 413.53L247.739 417.38C247.802 417.515 247.903 417.63 248.029 417.71C248.155 417.79 248.302 417.832 248.451 417.832C248.474 417.832 248.497 417.831 248.52 417.829C248.68 417.816 248.833 417.755 248.957 417.652C249.082 417.549 249.171 417.411 249.214 417.256L251.81 408.052C251.848 407.917 251.85 407.774 251.814 407.638C251.779 407.502 251.708 407.378 251.608 407.278Z" fill="#EEEFF2"/>
</g>
<path d="M0.745605 12.6456C0.745605 5.66161 6.40721 7.62939e-06 13.3911 7.62939e-06H272.536V50.5822H0.745605V12.6456Z" fill="#1C1E24"/>
<path d="M244.479 22.7126L237.366 29.8257" stroke="#5E6272" stroke-width="1.58069" stroke-linecap="round" stroke-linejoin="round"/>
<path d="M244.479 29.8257L237.366 22.7126" stroke="#5E6272" stroke-width="1.58069" stroke-linecap="round" stroke-linejoin="round"/>
<g clip-path="url(#clip3_59_2155)">
<g clip-path="url(#clip4_59_2155)">
<path d="M117.489 215.611C118.859 214.686 120.925 214.864 122.155 215.844L120.744 213.865C119.609 212.302 120.015 210.611 121.636 209.514C123.257 208.421 127.851 211.36 127.851 211.36C126.705 209.781 126.919 207.781 128.555 206.674C130.19 205.571 132.447 205.952 133.593 207.533L148.782 228.24L146.846 246.351L130.69 240.665L116.599 220.503C115.443 218.915 115.842 216.725 117.489 215.611Z" fill="#EF9645"/>
<path d="M114.332 227.13C114.332 227.13 112.681 224.809 115.088 223.218C117.492 221.627 119.141 223.947 119.141 223.947L126.795 234.719C127.059 234.294 127.348 233.875 127.67 233.462L117.046 218.513C117.046 218.513 115.397 216.193 117.802 214.602C120.206 213.011 121.855 215.331 121.855 215.331L131.848 229.393C132.219 229.101 132.6 228.807 132.992 228.518L121.407 212.213C121.407 212.213 119.759 209.894 122.164 208.303C124.568 206.712 126.216 209.032 126.216 209.032L137.801 225.334C138.227 225.082 138.648 224.864 139.071 224.633L128.243 209.396C128.243 209.396 126.594 207.076 128.998 205.485C131.402 203.894 133.05 206.214 133.05 206.214L144.499 222.326L146.24 224.777C139.027 229.551 138.34 238.533 142.461 244.333C143.285 245.493 144.488 244.698 144.488 244.698C139.541 237.737 141.052 229.914 148.266 225.141L146.139 214.869C146.139 214.869 145.345 212.163 148.148 211.395C150.952 210.628 151.748 213.335 151.748 213.335L154.205 220.374C155.178 223.165 156.215 225.946 157.587 228.576C161.46 236.004 159.146 245.234 151.843 250.069C143.877 255.34 132.986 253.381 127.523 245.694L114.332 227.13Z" fill="#FFDC5D"/>
<path d="M127.896 247.818C122.065 247.818 116.173 242.132 116.173 236.505C116.173 235.727 115.582 235.098 114.776 235.098C113.97 235.098 113.257 235.727 113.257 236.505C113.257 244.945 119.149 250.631 127.896 250.631C128.702 250.631 129.354 249.943 129.354 249.165C129.354 248.387 128.702 247.818 127.896 247.818Z" fill="url(#paint0_radial_59_2155)"/>
<path d="M120.607 250.572C116.234 250.572 113.319 247.759 113.319 243.538C113.319 242.761 112.667 242.132 111.861 242.132C111.055 242.132 110.403 242.761 110.403 243.538C110.403 249.165 114.776 253.385 120.607 253.385C121.413 253.385 122.065 252.757 122.065 251.979C122.065 251.201 121.413 250.572 120.607 250.572ZM145.389 205.557C144.584 205.557 143.931 206.188 143.931 206.964C143.931 207.741 144.584 208.371 145.389 208.371C151.22 208.371 157.05 213.42 157.05 219.625C157.05 220.401 157.704 221.031 158.508 221.031C159.313 221.031 159.966 220.401 159.966 219.625C159.966 211.868 154.135 205.557 145.389 205.557Z" fill="url(#paint1_radial_59_2155)"/>
<path d="M152.678 202.803C151.873 202.803 151.22 203.374 151.22 204.15C151.22 204.927 151.873 205.616 152.678 205.616C157.051 205.616 159.905 208.746 159.905 212.591C159.905 213.367 160.618 213.997 161.424 213.997C162.23 213.997 162.82 213.367 162.82 212.591C162.82 207.193 158.508 202.803 152.678 202.803Z" fill="url(#paint2_radial_59_2155)"/>
</g>
<path d="M66.4495 285.25V276.973H67.6983V284.175H71.4489V285.25H66.4495ZM75.3914 285.375C74.8094 285.375 74.3015 285.242 73.8677 284.975C73.434 284.709 73.0972 284.335 72.8574 283.856C72.6176 283.376 72.4977 282.816 72.4977 282.175C72.4977 281.531 72.6176 280.967 72.8574 280.485C73.0972 280.003 73.434 279.628 73.8677 279.362C74.3015 279.095 74.8094 278.962 75.3914 278.962C75.9734 278.962 76.4813 279.095 76.9151 279.362C77.3489 279.628 77.6857 280.003 77.9255 280.485C78.1653 280.967 78.2852 281.531 78.2852 282.175C78.2852 282.816 78.1653 283.376 77.9255 283.856C77.6857 284.335 77.3489 284.709 76.9151 284.975C76.4813 285.242 75.9734 285.375 75.3914 285.375ZM75.3955 284.361C75.7727 284.361 76.0852 284.261 76.3331 284.062C76.581 283.863 76.7642 283.597 76.8827 283.266C77.004 282.934 77.0646 282.569 77.0646 282.171C77.0646 281.774 77.004 281.411 76.8827 281.079C76.7642 280.745 76.581 280.477 76.3331 280.275C76.0852 280.073 75.7727 279.972 75.3955 279.972C75.0155 279.972 74.7003 280.073 74.4497 280.275C74.2018 280.477 74.0173 280.745 73.896 281.079C73.7775 281.411 73.7182 281.774 73.7182 282.171C73.7182 282.569 73.7775 282.934 73.896 283.266C74.0173 283.597 74.2018 283.863 74.4497 284.062C74.7003 284.261 75.0155 284.361 75.3955 284.361ZM81.4406 285.388C81.0472 285.388 80.6916 285.315 80.3736 285.169C80.0557 285.021 79.8038 284.807 79.6179 284.527C79.4346 284.247 79.343 283.903 79.343 283.496C79.343 283.146 79.4104 282.858 79.5451 282.631C79.6798 282.405 79.8617 282.226 80.0907 282.094C80.3197 281.962 80.5757 281.862 80.8586 281.795C81.1415 281.727 81.4298 281.676 81.7235 281.641C82.0953 281.598 82.3971 281.563 82.6288 281.536C82.8605 281.506 83.0289 281.459 83.134 281.395C83.2391 281.33 83.2916 281.225 83.2916 281.079V281.051C83.2916 280.698 83.1919 280.425 82.9925 280.231C82.7959 280.037 82.5022 279.94 82.1115 279.94C81.7046 279.94 81.384 280.03 81.1496 280.21C80.9179 280.388 80.7576 280.586 80.6687 280.804L79.533 280.546C79.6677 280.169 79.8644 279.864 80.123 279.632C80.3844 279.398 80.6848 279.228 81.0243 279.123C81.3638 279.015 81.7208 278.962 82.0953 278.962C82.3432 278.962 82.6059 278.991 82.8834 279.05C83.1636 279.107 83.425 279.212 83.6675 279.366C83.9127 279.519 84.1134 279.739 84.2697 280.024C84.4259 280.307 84.5041 280.675 84.5041 281.128V285.25H83.324V284.401H83.2755C83.1973 284.558 83.0801 284.711 82.9238 284.862C82.7676 285.013 82.5668 285.138 82.3216 285.238C82.0765 285.338 81.7828 285.388 81.4406 285.388ZM81.7033 284.418C82.0374 284.418 82.323 284.352 82.5601 284.22C82.7999 284.088 82.9818 283.915 83.1057 283.702C83.2323 283.487 83.2957 283.256 83.2957 283.011V282.211C83.2526 282.254 83.169 282.294 83.0451 282.332C82.9238 282.367 82.7851 282.398 82.6288 282.425C82.4725 282.449 82.3203 282.472 82.1721 282.494C82.0239 282.513 81.9 282.529 81.8003 282.542C81.5659 282.572 81.3517 282.622 81.1577 282.692C80.9664 282.762 80.8128 282.863 80.6969 282.995C80.5838 283.124 80.5272 283.297 80.5272 283.512C80.5272 283.811 80.6377 284.038 80.8586 284.191C81.0795 284.342 81.3611 284.418 81.7033 284.418ZM88.4375 285.371C87.9364 285.371 87.4891 285.243 87.0957 284.987C86.705 284.729 86.3979 284.361 86.1742 283.884C85.9533 283.405 85.8428 282.829 85.8428 282.158C85.8428 281.488 85.9547 280.914 86.1783 280.437C86.4046 279.96 86.7145 279.595 87.1078 279.341C87.5012 279.088 87.9471 278.962 88.4456 278.962C88.8309 278.962 89.1407 279.026 89.3752 279.156C89.6123 279.282 89.7955 279.43 89.9248 279.6C90.0568 279.77 90.1592 279.919 90.232 280.049H90.3047V276.973H91.5131V285.25H90.333V284.284H90.232C90.1592 284.416 90.0541 284.567 89.9167 284.737C89.782 284.907 89.5961 285.055 89.359 285.181C89.1219 285.308 88.8147 285.371 88.4375 285.371ZM88.7043 284.341C89.0518 284.341 89.3455 284.249 89.5853 284.066C89.8278 283.88 90.011 283.623 90.135 283.294C90.2616 282.965 90.3249 282.583 90.3249 282.146C90.3249 281.715 90.2629 281.338 90.139 281.015C90.0151 280.691 89.8332 280.439 89.5934 280.259C89.3536 280.078 89.0572 279.988 88.7043 279.988C88.3405 279.988 88.0374 280.082 87.7949 280.271C87.5524 280.46 87.3692 280.717 87.2453 281.043C87.124 281.369 87.0634 281.737 87.0634 282.146C87.0634 282.561 87.1254 282.934 87.2493 283.266C87.3732 283.597 87.5565 283.86 87.7989 284.054C88.0441 284.245 88.3459 284.341 88.7043 284.341ZM93.2379 285.25V279.042H94.4463V285.25H93.2379ZM93.8481 278.085C93.638 278.085 93.4574 278.014 93.3066 277.874C93.1584 277.732 93.0843 277.562 93.0843 277.365C93.0843 277.166 93.1584 276.996 93.3066 276.856C93.4574 276.713 93.638 276.642 93.8481 276.642C94.0583 276.642 94.2375 276.713 94.3857 276.856C94.5365 276.996 94.612 277.166 94.612 277.365C94.612 277.562 94.5365 277.732 94.3857 277.874C94.2375 278.014 94.0583 278.085 93.8481 278.085ZM97.2804 281.564V285.25H96.072V279.042H97.2319V280.053H97.3087C97.4515 279.724 97.6751 279.46 97.9796 279.261C98.2868 279.061 98.6734 278.962 99.1395 278.962C99.5625 278.962 99.933 279.05 100.251 279.228C100.569 279.403 100.815 279.665 100.991 280.012C101.166 280.36 101.253 280.79 101.253 281.302V285.25H100.045V281.447C100.045 280.997 99.9276 280.646 99.6932 280.392C99.4588 280.136 99.1368 280.008 98.7273 280.008C98.4471 280.008 98.1978 280.069 97.9796 280.19C97.764 280.311 97.593 280.489 97.4663 280.724C97.3424 280.955 97.2804 281.236 97.2804 281.564ZM105.477 287.707C104.984 287.707 104.559 287.643 104.204 287.513C103.851 287.384 103.562 287.213 103.339 287C103.115 286.787 102.948 286.554 102.838 286.301L103.876 285.873C103.949 285.991 104.046 286.116 104.167 286.248C104.291 286.383 104.458 286.498 104.668 286.592C104.881 286.686 105.155 286.733 105.489 286.733C105.947 286.733 106.325 286.622 106.624 286.398C106.924 286.177 107.073 285.824 107.073 285.339V284.119H106.996C106.924 284.251 106.818 284.397 106.681 284.559C106.546 284.721 106.36 284.861 106.123 284.979C105.886 285.098 105.578 285.157 105.198 285.157C104.707 285.157 104.266 285.043 103.872 284.814C103.481 284.582 103.172 284.241 102.943 283.791C102.716 283.339 102.603 282.782 102.603 282.122C102.603 281.462 102.715 280.896 102.939 280.425C103.165 279.953 103.475 279.592 103.868 279.341C104.262 279.088 104.707 278.962 105.206 278.962C105.591 278.962 105.902 279.026 106.139 279.156C106.377 279.282 106.561 279.43 106.693 279.6C106.828 279.77 106.932 279.919 107.004 280.049H107.093V279.042H108.277V285.388C108.277 285.921 108.154 286.359 107.906 286.701C107.658 287.043 107.322 287.297 106.899 287.461C106.479 287.625 106.005 287.707 105.477 287.707ZM105.465 284.155C105.812 284.155 106.106 284.074 106.346 283.912C106.588 283.748 106.771 283.514 106.895 283.209C107.022 282.902 107.085 282.534 107.085 282.106C107.085 281.688 107.023 281.32 106.899 281.003C106.775 280.685 106.593 280.437 106.354 280.259C106.114 280.078 105.817 279.988 105.465 279.988C105.101 279.988 104.798 280.082 104.555 280.271C104.313 280.457 104.129 280.71 104.006 281.031C103.884 281.351 103.824 281.71 103.824 282.106C103.824 282.513 103.886 282.87 104.01 283.177C104.134 283.484 104.317 283.724 104.559 283.896C104.804 284.069 105.106 284.155 105.465 284.155ZM115.525 285.375C114.943 285.375 114.435 285.242 114.001 284.975C113.567 284.709 113.231 284.335 112.991 283.856C112.751 283.376 112.631 282.816 112.631 282.175C112.631 281.531 112.751 280.967 112.991 280.485C113.231 280.003 113.567 279.628 114.001 279.362C114.435 279.095 114.943 278.962 115.525 278.962C116.107 278.962 116.615 279.095 117.049 279.362C117.482 279.628 117.819 280.003 118.059 280.485C118.299 280.967 118.419 281.531 118.419 282.175C118.419 282.816 118.299 283.376 118.059 283.856C117.819 284.335 117.482 284.709 117.049 284.975C116.615 285.242 116.107 285.375 115.525 285.375ZM115.529 284.361C115.906 284.361 116.219 284.261 116.467 284.062C116.715 283.863 116.898 283.597 117.016 283.266C117.138 282.934 117.198 282.569 117.198 282.171C117.198 281.774 117.138 281.411 117.016 281.079C116.898 280.745 116.715 280.477 116.467 280.275C116.219 280.073 115.906 279.972 115.529 279.972C115.149 279.972 114.834 280.073 114.583 280.275C114.335 280.477 114.151 280.745 114.03 281.079C113.911 281.411 113.852 281.774 113.852 282.171C113.852 282.569 113.911 282.934 114.03 283.266C114.151 283.597 114.335 283.863 114.583 284.062C114.834 284.261 115.149 284.361 115.529 284.361ZM120.976 276.973V285.25H119.768V276.973H120.976ZM124.926 285.371C124.424 285.371 123.977 285.243 123.584 284.987C123.193 284.729 122.886 284.361 122.662 283.884C122.441 283.405 122.331 282.829 122.331 282.158C122.331 281.488 122.443 280.914 122.666 280.437C122.893 279.96 123.203 279.595 123.596 279.341C123.989 279.088 124.435 278.962 124.934 278.962C125.319 278.962 125.629 279.026 125.863 279.156C126.1 279.282 126.284 279.43 126.413 279.6C126.545 279.77 126.647 279.919 126.72 280.049H126.793V276.973H128.001V285.25H126.821V284.284H126.72C126.647 284.416 126.542 284.567 126.405 284.737C126.27 284.907 126.084 285.055 125.847 285.181C125.61 285.308 125.303 285.371 124.926 285.371ZM125.192 284.341C125.54 284.341 125.834 284.249 126.073 284.066C126.316 283.88 126.499 283.623 126.623 283.294C126.75 282.965 126.813 282.583 126.813 282.146C126.813 281.715 126.751 281.338 126.627 281.015C126.503 280.691 126.321 280.439 126.081 280.259C125.842 280.078 125.545 279.988 125.192 279.988C124.829 279.988 124.525 280.082 124.283 280.271C124.04 280.46 123.857 280.717 123.733 281.043C123.612 281.369 123.551 281.737 123.551 282.146C123.551 282.561 123.613 282.934 123.737 283.266C123.861 283.597 124.045 283.86 124.287 284.054C124.532 284.245 124.834 284.341 125.192 284.341ZM132.401 285.375C131.79 285.375 131.263 285.245 130.821 284.983C130.382 284.719 130.043 284.349 129.803 283.872C129.566 283.392 129.447 282.831 129.447 282.187C129.447 281.551 129.566 280.99 129.803 280.505C130.043 280.02 130.377 279.642 130.805 279.37C131.236 279.098 131.74 278.962 132.317 278.962C132.667 278.962 133.006 279.019 133.335 279.135C133.664 279.251 133.959 279.433 134.22 279.681C134.481 279.929 134.688 280.251 134.838 280.647C134.989 281.04 135.065 281.518 135.065 282.082V282.51H130.13V281.605H133.881C133.881 281.287 133.816 281.005 133.687 280.76C133.557 280.512 133.375 280.317 133.141 280.174C132.909 280.031 132.637 279.96 132.325 279.96C131.985 279.96 131.689 280.043 131.436 280.21C131.185 280.375 130.991 280.59 130.854 280.857C130.719 281.121 130.651 281.408 130.651 281.718V282.425C130.651 282.84 130.724 283.193 130.87 283.484C131.018 283.775 131.224 283.997 131.488 284.151C131.752 284.302 132.061 284.377 132.414 284.377C132.643 284.377 132.851 284.345 133.04 284.28C133.229 284.213 133.392 284.113 133.529 283.981C133.666 283.849 133.772 283.686 133.844 283.492L134.988 283.698C134.896 284.035 134.732 284.33 134.495 284.583C134.261 284.834 133.966 285.029 133.61 285.169C133.257 285.307 132.854 285.375 132.401 285.375ZM136.406 285.25V279.042H137.574V280.029H137.638C137.751 279.694 137.951 279.432 138.236 279.24C138.525 279.046 138.851 278.949 139.214 278.949C139.29 278.949 139.379 278.952 139.481 278.957C139.586 278.963 139.668 278.97 139.728 278.978V280.134C139.679 280.12 139.593 280.105 139.469 280.089C139.345 280.07 139.221 280.061 139.097 280.061C138.812 280.061 138.557 280.121 138.333 280.243C138.112 280.361 137.937 280.527 137.808 280.74C137.679 280.95 137.614 281.19 137.614 281.459V285.25H136.406ZM143.785 285.25V279.042H144.945V280.053H145.022C145.151 279.711 145.363 279.444 145.657 279.253C145.95 279.059 146.302 278.962 146.712 278.962C147.126 278.962 147.474 279.059 147.754 279.253C148.037 279.447 148.246 279.713 148.381 280.053H148.445C148.594 279.721 148.829 279.457 149.153 279.261C149.476 279.061 149.861 278.962 150.309 278.962C150.872 278.962 151.331 279.138 151.687 279.491C152.045 279.844 152.224 280.376 152.224 281.087V285.25H151.016V281.201C151.016 280.78 150.901 280.476 150.672 280.287C150.443 280.099 150.17 280.004 149.852 280.004C149.458 280.004 149.153 280.126 148.934 280.368C148.716 280.608 148.607 280.916 148.607 281.294V285.25H147.403V281.124C147.403 280.787 147.298 280.516 147.087 280.311C146.877 280.107 146.604 280.004 146.267 280.004C146.038 280.004 145.826 280.065 145.632 280.186C145.441 280.305 145.286 280.47 145.168 280.683C145.052 280.896 144.994 281.143 144.994 281.423V285.25H143.785ZM156.519 285.375C155.908 285.375 155.381 285.245 154.939 284.983C154.5 284.719 154.16 284.349 153.921 283.872C153.684 283.392 153.565 282.831 153.565 282.187C153.565 281.551 153.684 280.99 153.921 280.505C154.16 280.02 154.495 279.642 154.923 279.37C155.354 279.098 155.858 278.962 156.434 278.962C156.785 278.962 157.124 279.019 157.453 279.135C157.782 279.251 158.077 279.433 158.338 279.681C158.599 279.929 158.806 280.251 158.956 280.647C159.107 281.04 159.183 281.518 159.183 282.082V282.51H154.248V281.605H157.999C157.999 281.287 157.934 281.005 157.805 280.76C157.675 280.512 157.493 280.317 157.259 280.174C157.027 280.031 156.755 279.96 156.443 279.96C156.103 279.96 155.807 280.043 155.553 280.21C155.303 280.375 155.109 280.59 154.971 280.857C154.837 281.121 154.769 281.408 154.769 281.718V282.425C154.769 282.84 154.842 283.193 154.988 283.484C155.136 283.775 155.342 283.997 155.606 284.151C155.87 284.302 156.179 284.377 156.531 284.377C156.76 284.377 156.969 284.345 157.158 284.28C157.347 284.213 157.51 284.113 157.647 283.981C157.784 283.849 157.889 283.686 157.962 283.492L159.106 283.698C159.014 284.035 158.85 284.33 158.613 284.583C158.378 284.834 158.083 285.029 157.728 285.169C157.375 285.307 156.972 285.375 156.519 285.375ZM165.175 280.558L164.08 280.752C164.034 280.612 163.962 280.478 163.862 280.352C163.765 280.225 163.633 280.121 163.466 280.041C163.299 279.96 163.09 279.919 162.839 279.919C162.497 279.919 162.212 279.996 161.982 280.15C161.753 280.301 161.639 280.496 161.639 280.736C161.639 280.943 161.716 281.11 161.869 281.237C162.023 281.364 162.271 281.467 162.613 281.548L163.599 281.774C164.17 281.906 164.596 282.11 164.876 282.385C165.156 282.66 165.297 283.017 165.297 283.456C165.297 283.828 165.189 284.159 164.973 284.45C164.76 284.738 164.463 284.965 164.08 285.129C163.7 285.293 163.26 285.375 162.758 285.375C162.063 285.375 161.496 285.227 161.057 284.931C160.618 284.632 160.348 284.207 160.249 283.658L161.417 283.48C161.489 283.784 161.639 284.015 161.865 284.171C162.092 284.325 162.387 284.401 162.75 284.401C163.146 284.401 163.463 284.319 163.7 284.155C163.937 283.988 164.056 283.784 164.056 283.545C164.056 283.351 163.983 283.188 163.838 283.056C163.695 282.924 163.475 282.824 163.179 282.757L162.128 282.526C161.549 282.394 161.12 282.184 160.843 281.896C160.568 281.607 160.431 281.242 160.431 280.8C160.431 280.434 160.533 280.113 160.738 279.839C160.942 279.564 161.225 279.35 161.586 279.196C161.947 279.04 162.361 278.962 162.827 278.962C163.498 278.962 164.026 279.107 164.411 279.398C164.797 279.686 165.051 280.073 165.175 280.558ZM171.277 280.558L170.182 280.752C170.136 280.612 170.063 280.478 169.964 280.352C169.867 280.225 169.735 280.121 169.567 280.041C169.4 279.96 169.192 279.919 168.941 279.919C168.599 279.919 168.313 279.996 168.084 280.15C167.855 280.301 167.741 280.496 167.741 280.736C167.741 280.943 167.817 281.11 167.971 281.237C168.125 281.364 168.373 281.467 168.715 281.548L169.701 281.774C170.272 281.906 170.698 282.11 170.978 282.385C171.258 282.66 171.398 283.017 171.398 283.456C171.398 283.828 171.291 284.159 171.075 284.45C170.862 284.738 170.564 284.965 170.182 285.129C169.802 285.293 169.361 285.375 168.86 285.375C168.165 285.375 167.598 285.227 167.159 284.931C166.72 284.632 166.45 284.207 166.35 283.658L167.518 283.48C167.591 283.784 167.741 284.015 167.967 284.171C168.193 284.325 168.488 284.401 168.852 284.401C169.248 284.401 169.565 284.319 169.802 284.155C170.039 283.988 170.158 283.784 170.158 283.545C170.158 283.351 170.085 283.188 169.939 283.056C169.796 282.924 169.577 282.824 169.281 282.757L168.23 282.526C167.65 282.394 167.222 282.184 166.945 281.896C166.67 281.607 166.532 281.242 166.532 280.8C166.532 280.434 166.635 280.113 166.839 279.839C167.044 279.564 167.327 279.35 167.688 279.196C168.049 279.04 168.463 278.962 168.929 278.962C169.6 278.962 170.128 279.107 170.513 279.398C170.898 279.686 171.153 280.073 171.277 280.558ZM174.534 285.388C174.14 285.388 173.784 285.315 173.467 285.169C173.149 285.021 172.897 284.807 172.711 284.527C172.528 284.247 172.436 283.903 172.436 283.496C172.436 283.146 172.503 282.858 172.638 282.631C172.773 282.405 172.955 282.226 173.184 282.094C173.413 281.962 173.669 281.862 173.952 281.795C174.234 281.727 174.523 281.676 174.816 281.641C175.188 281.598 175.49 281.563 175.722 281.536C175.953 281.506 176.122 281.459 176.227 281.395C176.332 281.33 176.385 281.225 176.385 281.079V281.051C176.385 280.698 176.285 280.425 176.085 280.231C175.889 280.037 175.595 279.94 175.204 279.94C174.798 279.94 174.477 280.03 174.243 280.21C174.011 280.388 173.85 280.586 173.762 280.804L172.626 280.546C172.761 280.169 172.957 279.864 173.216 279.632C173.477 279.398 173.778 279.228 174.117 279.123C174.457 279.015 174.814 278.962 175.188 278.962C175.436 278.962 175.699 278.991 175.976 279.05C176.257 279.107 176.518 279.212 176.76 279.366C177.006 279.519 177.206 279.739 177.363 280.024C177.519 280.307 177.597 280.675 177.597 281.128V285.25H176.417V284.401H176.368C176.29 284.558 176.173 284.711 176.017 284.862C175.86 285.013 175.66 285.138 175.415 285.238C175.169 285.338 174.876 285.388 174.534 285.388ZM174.796 284.418C175.13 284.418 175.416 284.352 175.653 284.22C175.893 284.088 176.075 283.915 176.199 283.702C176.325 283.487 176.389 283.256 176.389 283.011V282.211C176.345 282.254 176.262 282.294 176.138 282.332C176.017 282.367 175.878 282.398 175.722 282.425C175.565 282.449 175.413 282.472 175.265 282.494C175.117 282.513 174.993 282.529 174.893 282.542C174.659 282.572 174.445 282.622 174.251 282.692C174.059 282.762 173.906 282.863 173.79 282.995C173.677 283.124 173.62 283.297 173.62 283.512C173.62 283.811 173.731 284.038 173.952 284.191C174.172 284.342 174.454 284.418 174.796 284.418ZM181.809 287.707C181.316 287.707 180.892 287.643 180.536 287.513C180.183 287.384 179.895 287.213 179.671 287C179.448 286.787 179.281 286.554 179.17 286.301L180.209 285.873C180.282 285.991 180.379 286.116 180.5 286.248C180.624 286.383 180.791 286.498 181.001 286.592C181.214 286.686 181.487 286.733 181.821 286.733C182.279 286.733 182.658 286.622 182.957 286.398C183.256 286.177 183.406 285.824 183.406 285.339V284.119H183.329C183.256 284.251 183.151 284.397 183.014 284.559C182.879 284.721 182.693 284.861 182.456 284.979C182.219 285.098 181.91 285.157 181.53 285.157C181.04 285.157 180.598 285.043 180.205 284.814C179.814 284.582 179.504 284.241 179.275 283.791C179.049 283.339 178.936 282.782 178.936 282.122C178.936 281.462 179.048 280.896 179.271 280.425C179.498 279.953 179.807 279.592 180.201 279.341C180.594 279.088 181.04 278.962 181.539 278.962C181.924 278.962 182.235 279.026 182.472 279.156C182.709 279.282 182.894 279.43 183.026 279.6C183.161 279.77 183.264 279.919 183.337 280.049H183.426V279.042H184.61V285.388C184.61 285.921 184.486 286.359 184.238 286.701C183.99 287.043 183.655 287.297 183.232 287.461C182.812 287.625 182.337 287.707 181.809 287.707ZM181.797 284.155C182.145 284.155 182.438 284.074 182.678 283.912C182.921 283.748 183.104 283.514 183.228 283.209C183.355 282.902 183.418 282.534 183.418 282.106C183.418 281.688 183.356 281.32 183.232 281.003C183.108 280.685 182.926 280.437 182.686 280.259C182.447 280.078 182.15 279.988 181.797 279.988C181.433 279.988 181.13 280.082 180.888 280.271C180.645 280.457 180.462 280.71 180.338 281.031C180.217 281.351 180.156 281.71 180.156 282.106C180.156 282.513 180.218 282.87 180.342 283.177C180.466 283.484 180.649 283.724 180.892 283.896C181.137 284.069 181.439 284.155 181.797 284.155ZM188.906 285.375C188.295 285.375 187.768 285.245 187.326 284.983C186.887 284.719 186.547 284.349 186.308 283.872C186.07 283.392 185.952 282.831 185.952 282.187C185.952 281.551 186.07 280.99 186.308 280.505C186.547 280.02 186.881 279.642 187.31 279.37C187.741 279.098 188.245 278.962 188.821 278.962C189.172 278.962 189.511 279.019 189.84 279.135C190.169 279.251 190.464 279.433 190.725 279.681C190.986 279.929 191.192 280.251 191.343 280.647C191.494 281.04 191.57 281.518 191.57 282.082V282.51H186.635V281.605H190.385C190.385 281.287 190.321 281.005 190.191 280.76C190.062 280.512 189.88 280.317 189.646 280.174C189.414 280.031 189.142 279.96 188.829 279.96C188.49 279.96 188.194 280.043 187.94 280.21C187.69 280.375 187.496 280.59 187.358 280.857C187.224 281.121 187.156 281.408 187.156 281.718V282.425C187.156 282.84 187.229 283.193 187.375 283.484C187.523 283.775 187.729 283.997 187.993 284.151C188.257 284.302 188.565 284.377 188.918 284.377C189.147 284.377 189.356 284.345 189.545 284.28C189.733 284.213 189.896 284.113 190.034 283.981C190.171 283.849 190.276 283.686 190.349 283.492L191.493 283.698C191.401 284.035 191.237 284.33 191 284.583C190.765 284.834 190.47 285.029 190.115 285.169C189.762 285.307 189.359 285.375 188.906 285.375ZM197.562 280.558L196.467 280.752C196.421 280.612 196.348 280.478 196.249 280.352C196.152 280.225 196.02 280.121 195.853 280.041C195.686 279.96 195.477 279.919 195.226 279.919C194.884 279.919 194.598 279.996 194.369 280.15C194.14 280.301 194.026 280.496 194.026 280.736C194.026 280.943 194.103 281.11 194.256 281.237C194.41 281.364 194.658 281.467 195 281.548L195.986 281.774C196.557 281.906 196.983 282.11 197.263 282.385C197.543 282.66 197.683 283.017 197.683 283.456C197.683 283.828 197.576 284.159 197.36 284.45C197.147 284.738 196.85 284.965 196.467 285.129C196.087 285.293 195.647 285.375 195.145 285.375C194.45 285.375 193.883 285.227 193.444 284.931C193.005 284.632 192.735 284.207 192.636 283.658L193.804 283.48C193.876 283.784 194.026 284.015 194.252 284.171C194.479 284.325 194.774 284.401 195.137 284.401C195.533 284.401 195.85 284.319 196.087 284.155C196.324 283.988 196.443 283.784 196.443 283.545C196.443 283.351 196.37 283.188 196.224 283.056C196.082 282.924 195.862 282.824 195.566 282.757L194.515 282.526C193.936 282.394 193.507 282.184 193.23 281.896C192.955 281.607 192.817 281.242 192.817 280.8C192.817 280.434 192.92 280.113 193.125 279.839C193.329 279.564 193.612 279.35 193.973 279.196C194.334 279.04 194.748 278.962 195.214 278.962C195.885 278.962 196.413 279.107 196.798 279.398C197.184 279.686 197.438 280.073 197.562 280.558ZM199.808 285.327C199.587 285.327 199.397 285.249 199.238 285.093C199.079 284.934 199 284.742 199 284.519C199 284.298 199.079 284.109 199.238 283.953C199.397 283.794 199.587 283.714 199.808 283.714C200.029 283.714 200.219 283.794 200.378 283.953C200.537 284.109 200.617 284.298 200.617 284.519C200.617 284.667 200.579 284.803 200.503 284.927C200.431 285.048 200.334 285.145 200.212 285.218C200.091 285.291 199.957 285.327 199.808 285.327ZM203.031 285.327C202.811 285.327 202.621 285.249 202.462 285.093C202.303 284.934 202.223 284.742 202.223 284.519C202.223 284.298 202.303 284.109 202.462 283.953C202.621 283.794 202.811 283.714 203.031 283.714C203.252 283.714 203.442 283.794 203.601 283.953C203.76 284.109 203.84 284.298 203.84 284.519C203.84 284.667 203.802 284.803 203.727 284.927C203.654 285.048 203.557 285.145 203.436 285.218C203.314 285.291 203.18 285.327 203.031 285.327ZM206.255 285.327C206.034 285.327 205.844 285.249 205.685 285.093C205.526 284.934 205.446 284.742 205.446 284.519C205.446 284.298 205.526 284.109 205.685 283.953C205.844 283.794 206.034 283.714 206.255 283.714C206.476 283.714 206.665 283.794 206.824 283.953C206.983 284.109 207.063 284.298 207.063 284.519C207.063 284.667 207.025 284.803 206.95 284.927C206.877 285.048 206.78 285.145 206.659 285.218C206.537 285.291 206.403 285.327 206.255 285.327Z" fill="#808191"/>
</g>
</g>
<defs>
<radialGradient id="paint0_radial_59_2155" cx="0" cy="0" r="1" gradientUnits="userSpaceOnUse" gradientTransform="translate(128.606 237.328) rotate(135.427) scale(19.4054 19.4073)">
<stop stop-color="#FFD840"/>
<stop offset="0.558578" stop-color="#F3ACFF"/>
<stop offset="1" stop-color="#8AECFF"/>
</radialGradient>
<radialGradient id="paint1_radial_59_2155" cx="0" cy="0" r="1" gradientUnits="userSpaceOnUse" gradientTransform="translate(157.664 212.424) rotate(135.427) scale(59.752 59.7582)">
<stop stop-color="#FFD840"/>
<stop offset="0.558578" stop-color="#F3ACFF"/>
<stop offset="1" stop-color="#8AECFF"/>
</radialGradient>
<radialGradient id="paint2_radial_59_2155" cx="0" cy="0" r="1" gradientUnits="userSpaceOnUse" gradientTransform="translate(162.281 204.41) rotate(135.427) scale(13.9855 13.9869)">
<stop stop-color="#FFD840"/>
<stop offset="0.558578" stop-color="#F3ACFF"/>
<stop offset="1" stop-color="#8AECFF"/>
</radialGradient>
<clipPath id="clip0_59_2155">
<path d="M0.745605 12.6455C0.745605 5.66159 6.40721 0 13.3911 0H272.536V429H13.3911C6.40721 429 0.745605 423.338 0.745605 416.354V12.6455Z" fill="white"/>
</clipPath>
<clipPath id="clip1_59_2155">
<rect width="18.9683" height="18.9683" fill="white" transform="translate(201.118 402.523)"/>
</clipPath>
<clipPath id="clip2_59_2155">
<rect width="18.9683" height="18.9683" fill="white" transform="translate(237.395 402.523)"/>
</clipPath>
<clipPath id="clip3_59_2155">
<rect width="271.79" height="378.418" fill="white" transform="translate(0.745605 50.5821)"/>
</clipPath>
<clipPath id="clip4_59_2155">
<rect width="52.9532" height="50.5822" fill="white" transform="translate(110.149 202.803)"/>
</clipPath>
</defs>
</svg>
