<svg width="43" height="42" viewBox="0 0 43 42" fill="none" xmlns="http://www.w3.org/2000/svg">
<rect y="2" width="40" height="40" rx="10" fill="#0D0D0D"/>
<path d="M18.146 14.2497C18.2954 13.8805 18.5517 13.5643 18.882 13.3416C19.2124 13.119 19.6016 13 20 13C20.3984 13 20.7876 13.119 21.118 13.3416C21.4483 13.5643 21.7046 13.8805 21.854 14.2497C23.3327 14.6564 24.637 15.5372 25.5667 16.7568C26.4963 17.9765 26.9998 19.4675 26.9999 21.001V25.6975L28.8319 28.4453C28.9323 28.5958 28.99 28.7709 28.9988 28.9517C29.0076 29.1325 28.9671 29.3123 28.8817 29.4719C28.7963 29.6315 28.6692 29.765 28.5139 29.858C28.3586 29.951 28.1809 30.0001 27.9999 30.0001H23.4649C23.3445 30.8331 22.928 31.5949 22.2917 32.1458C21.6553 32.6968 20.8417 33 20 33C19.1583 33 18.3447 32.6968 17.7083 32.1458C17.072 31.5949 16.6555 30.8331 16.5351 30.0001H12.0001C11.8191 30.0001 11.6414 29.951 11.4861 29.858C11.3308 29.765 11.2037 29.6315 11.1183 29.4719C11.0329 29.3123 10.9924 29.1325 11.0012 28.9517C11.01 28.7709 11.0677 28.5958 11.1681 28.4453L13.0001 25.6975V21.001C13.0001 17.7774 15.1801 15.0617 18.146 14.2497ZM18.586 30.0001C18.6893 30.2927 18.8808 30.5461 19.1341 30.7253C19.3875 30.9045 19.6902 31.0008 20.0005 31.0008C20.3108 31.0008 20.6135 30.9045 20.8669 30.7253C21.1202 30.5461 21.3117 30.2927 21.415 30.0001H18.585H18.586ZM20 16.0016C18.6739 16.0016 17.4022 16.5283 16.4645 17.4659C15.5269 18.4035 15.0001 19.6751 15.0001 21.001V26.0005C15.0001 26.198 14.9417 26.3911 14.8321 26.5555L13.8691 28.0003H26.1299L25.1669 26.5555C25.0577 26.391 24.9996 26.1979 24.9999 26.0005V21.001C24.9999 19.6751 24.4731 18.4035 23.5355 17.4659C22.5978 16.5283 21.3261 16.0016 20 16.0016Z" fill="white"/>
<rect x="29" width="14" height="14" rx="4" fill="#FF1A94"/>
<path d="M33.28 4.304C33.7973 4.304 34.2427 4.41067 34.616 4.624C34.9893 4.83733 35.2773 5.14933 35.48 5.56C35.6827 5.96533 35.784 6.472 35.784 7.08C35.784 7.72533 35.6613 8.272 35.416 8.72C35.176 9.168 34.8427 9.50933 34.416 9.744C33.9893 9.97867 33.4933 10.096 32.928 10.096C32.6347 10.096 32.352 10.064 32.08 10C31.808 9.936 31.5733 9.84 31.376 9.712L31.856 8.76C32.0107 8.86667 32.176 8.94133 32.352 8.984C32.528 9.02133 32.712 9.04 32.904 9.04C33.384 9.04 33.7653 8.89333 34.048 8.6C34.336 8.30667 34.48 7.872 34.48 7.296C34.48 7.2 34.4773 7.09333 34.472 6.976C34.4667 6.85867 34.4533 6.74133 34.432 6.624L34.784 6.96C34.6933 7.168 34.5653 7.344 34.4 7.488C34.2347 7.62667 34.0427 7.73333 33.824 7.808C33.6053 7.87733 33.36 7.912 33.088 7.912C32.7307 7.912 32.4053 7.84 32.112 7.696C31.824 7.552 31.592 7.34933 31.416 7.088C31.2453 6.82667 31.16 6.52 31.16 6.168C31.16 5.784 31.2533 5.45333 31.44 5.176C31.632 4.89867 31.888 4.68533 32.208 4.536C32.5333 4.38133 32.8907 4.304 33.28 4.304ZM33.36 5.272C33.1733 5.272 33.0107 5.30667 32.872 5.376C32.7333 5.44 32.624 5.536 32.544 5.664C32.464 5.78667 32.424 5.93333 32.424 6.104C32.424 6.36 32.5093 6.56533 32.68 6.72C32.856 6.86933 33.088 6.944 33.376 6.944C33.5627 6.944 33.728 6.90933 33.872 6.84C34.0213 6.76533 34.136 6.664 34.216 6.536C34.296 6.408 34.336 6.264 34.336 6.104C34.336 5.944 34.296 5.80267 34.216 5.68C34.1413 5.552 34.032 5.45333 33.888 5.384C33.744 5.30933 33.568 5.272 33.36 5.272ZM38.3738 4.304C38.8911 4.304 39.3364 4.41067 39.7098 4.624C40.0831 4.83733 40.3711 5.14933 40.5738 5.56C40.7764 5.96533 40.8778 6.472 40.8778 7.08C40.8778 7.72533 40.7551 8.272 40.5098 8.72C40.2698 9.168 39.9364 9.50933 39.5098 9.744C39.0831 9.97867 38.5871 10.096 38.0218 10.096C37.7284 10.096 37.4458 10.064 37.1738 10C36.9018 9.936 36.6671 9.84 36.4698 9.712L36.9498 8.76C37.1044 8.86667 37.2698 8.94133 37.4458 8.984C37.6218 9.02133 37.8058 9.04 37.9978 9.04C38.4778 9.04 38.8591 8.89333 39.1418 8.6C39.4298 8.30667 39.5738 7.872 39.5738 7.296C39.5738 7.2 39.5711 7.09333 39.5658 6.976C39.5604 6.85867 39.5471 6.74133 39.5258 6.624L39.8778 6.96C39.7871 7.168 39.6591 7.344 39.4938 7.488C39.3284 7.62667 39.1364 7.73333 38.9178 7.808C38.6991 7.87733 38.4538 7.912 38.1818 7.912C37.8244 7.912 37.4991 7.84 37.2058 7.696C36.9178 7.552 36.6858 7.34933 36.5098 7.088C36.3391 6.82667 36.2538 6.52 36.2538 6.168C36.2538 5.784 36.3471 5.45333 36.5338 5.176C36.7258 4.89867 36.9818 4.68533 37.3018 4.536C37.6271 4.38133 37.9844 4.304 38.3738 4.304ZM38.4538 5.272C38.2671 5.272 38.1044 5.30667 37.9658 5.376C37.8271 5.44 37.7178 5.536 37.6378 5.664C37.5578 5.78667 37.5178 5.93333 37.5178 6.104C37.5178 6.36 37.6031 6.56533 37.7738 6.72C37.9498 6.86933 38.1818 6.944 38.4698 6.944C38.6564 6.944 38.8218 6.90933 38.9658 6.84C39.1151 6.76533 39.2298 6.664 39.3098 6.536C39.3898 6.408 39.4298 6.264 39.4298 6.104C39.4298 5.944 39.3898 5.80267 39.3098 5.68C39.2351 5.552 39.1258 5.45333 38.9818 5.384C38.8378 5.30933 38.6618 5.272 38.4538 5.272Z" fill="white"/>
</svg>
