<svg width="40" height="40" viewBox="0 0 40 40" fill="none" xmlns="http://www.w3.org/2000/svg">
<rect width="40" height="40" rx="10" fill="#0D0D0D"/>
<path d="M14.375 15.1127C14.375 13.7568 14.9676 12.4563 16.0225 11.4975C17.0774 10.5387 18.5082 10 20 10C21.4918 10 22.9226 10.5387 23.9775 11.4975C25.0324 12.4563 25.625 13.7568 25.625 15.1127C25.625 16.4687 25.0324 17.7692 23.9775 18.728C22.9226 19.6868 21.4918 20.2255 20 20.2255C18.5082 20.2255 17.0774 19.6868 16.0225 18.728C14.9676 17.7692 14.375 16.4687 14.375 15.1127V15.1127ZM20 18.1804C20.8951 18.1804 21.7536 17.8572 22.3865 17.2819C23.0194 16.7066 23.375 15.9263 23.375 15.1127C23.375 14.2992 23.0194 13.5189 22.3865 12.9436C21.7536 12.3683 20.8951 12.0451 20 12.0451C19.1049 12.0451 18.2464 12.3683 17.6135 12.9436C16.9806 13.5189 16.625 14.2992 16.625 15.1127C16.625 15.9263 16.9806 16.7066 17.6135 17.2819C18.2464 17.8572 19.1049 18.1804 20 18.1804V18.1804Z" fill="white"/>
<path d="M13.6359 23.6439C12.8002 24.4035 12.1372 25.3053 11.685 26.2979C11.2327 27.2904 11 28.3541 11 29.4284H13.25C13.25 27.8012 13.9612 26.2407 15.227 25.0901C16.4929 23.9395 18.2098 23.2931 20 23.2931C21.7902 23.2931 23.5071 23.9395 24.773 25.0901C26.0388 26.2407 26.75 27.8012 26.75 29.4284H29C29.0001 27.8105 28.4723 26.2288 27.4833 24.8835C26.4944 23.5382 25.0888 22.4896 23.4442 21.8705C21.7996 21.2513 19.99 21.0893 18.2441 21.4049C16.4982 21.7206 14.8945 22.4998 13.6359 23.6439V23.6439Z" fill="white"/>
</svg>
