<svg width="64" height="64" viewBox="0 0 64 64" fill="none" xmlns="http://www.w3.org/2000/svg">
<g filter="url(#filter0_d_228_29)">
<rect x="20" y="12" width="24" height="24" rx="12" fill="url(#paint0_linear_228_29)"/>
</g>
<path d="M50.5607 16.8894C50.5712 16.9145 50.6043 17.0134 50.5225 17.2568C50.4379 17.5083 50.2506 17.8467 49.9155 18.2687C49.2459 19.1119 48.1187 20.1249 46.575 21.238C43.5008 23.4547 38.958 25.9388 33.6771 28.1434C28.3962 30.3481 23.4356 31.8316 19.6979 32.4587C17.8209 32.7736 16.308 32.8628 15.2376 32.746C14.702 32.6875 14.3296 32.5828 14.0913 32.4661C13.8607 32.3531 13.8137 32.26 13.8032 32.2349C13.7927 32.2097 13.7595 32.1108 13.8414 31.8674C13.926 31.6159 14.1133 31.2775 14.4484 30.8555C15.118 30.0123 16.2452 28.9993 17.7889 27.8862C20.8631 25.6695 25.4059 23.1855 30.6868 20.9808C35.9677 18.7761 40.9283 17.2927 44.666 16.6655C46.543 16.3506 48.0559 16.2614 49.1263 16.3782C49.6619 16.4367 50.0343 16.5415 50.2726 16.6582C50.5032 16.7711 50.5502 16.8642 50.5607 16.8894Z" stroke="#FEFEFE" stroke-width="2"/>
<defs>
<filter id="filter0_d_228_29" x="0" y="0" width="64" height="64" filterUnits="userSpaceOnUse" color-interpolation-filters="sRGB">
<feFlood flood-opacity="0" result="BackgroundImageFix"/>
<feColorMatrix in="SourceAlpha" type="matrix" values="0 0 0 0 0 0 0 0 0 0 0 0 0 0 0 0 0 0 127 0" result="hardAlpha"/>
<feOffset dy="8"/>
<feGaussianBlur stdDeviation="10"/>
<feColorMatrix type="matrix" values="0 0 0 0 0.992157 0 0 0 0 0 0 0 0 0 0.486275 0 0 0 0.25 0"/>
<feBlend mode="normal" in2="BackgroundImageFix" result="effect1_dropShadow_228_29"/>
<feBlend mode="normal" in="SourceGraphic" in2="effect1_dropShadow_228_29" result="shape"/>
</filter>
<linearGradient id="paint0_linear_228_29" x1="24.35" y1="12" x2="41.853" y2="12.4386" gradientUnits="userSpaceOnUse">
<stop stop-color="#D800A8"/>
<stop offset="1" stop-color="#FF007A"/>
</linearGradient>
</defs>
</svg>
